<svg width="21" height="17" viewBox="0 0 21 17" fill="none" xmlns="http://www.w3.org/2000/svg">
<path d="M19.5 3V2H17.5V3H16.221L15.221 0H5.779L4.779 3H0.5V17H20.5V3H19.5ZM18.5 15H2.5V5H6.221L7.221 2H13.779L14.779 5H18.5V15Z" fill="#F8F8F8"/>
<path d="M10.5 5C9.60999 5 8.73996 5.26392 7.99994 5.75839C7.25991 6.25285 6.68314 6.95566 6.34254 7.77792C6.00195 8.60019 5.91283 9.50499 6.08647 10.3779C6.2601 11.2508 6.68869 12.0526 7.31802 12.682C7.94736 13.3113 8.74918 13.7399 9.6221 13.9135C10.495 14.0872 11.3998 13.9981 12.2221 13.6575C13.0443 13.3169 13.7471 12.7401 14.2416 12.0001C14.7361 11.26 15 10.39 15 9.5C14.9987 8.30693 14.5241 7.16311 13.6805 6.31948C12.8369 5.47585 11.6931 5.00132 10.5 5V5ZM10.5 12C10.0055 12 9.5222 11.8534 9.11108 11.5787C8.69995 11.304 8.37952 10.9135 8.1903 10.4567C8.00108 9.99989 7.95158 9.49723 8.04804 9.01227C8.1445 8.52732 8.3826 8.08186 8.73223 7.73223C9.08187 7.3826 9.52732 7.1445 10.0123 7.04804C10.4972 6.95157 10.9999 7.00108 11.4567 7.1903C11.9135 7.37952 12.304 7.69995 12.5787 8.11107C12.8534 8.5222 13 9.00555 13 9.5C13 10.163 12.7366 10.7989 12.2678 11.2678C11.7989 11.7366 11.163 12 10.5 12V12Z" fill="#F8F8F8"/>
</svg>
