<svg width="12" height="21" viewBox="0 0 12 21" fill="none" xmlns="http://www.w3.org/2000/svg">
<path d="M9.00001 16V15H11V13H9.00001V10.09C9.76799 9.59573 10.3994 8.91635 10.8363 8.11431C11.2731 7.31227 11.5013 6.41329 11.5 5.5C11.5 4.04131 10.9205 2.64236 9.88909 1.61091C8.85764 0.579463 7.4587 0 6.00001 0C4.54132 0 3.14237 0.579463 2.11092 1.61091C1.07947 2.64236 0.500006 4.04131 0.500006 5.5C0.498671 6.41329 0.726912 7.31227 1.16375 8.11431C1.6006 8.91635 2.23202 9.59573 3.00001 10.09V18.781L9.00001 20.281V18H12V16H9.00001ZM7.00001 17.719L5.00001 17.219V8.894L4.44701 8.617C3.73938 8.26664 3.17101 7.68729 2.83426 6.97308C2.49751 6.25887 2.41216 5.45178 2.59207 4.68293C2.77198 3.91409 3.20659 3.22867 3.82528 2.73804C4.44397 2.24742 5.21039 1.98041 6.00001 1.98041C6.78962 1.98041 7.55604 2.24742 8.17473 2.73804C8.79342 3.22867 9.22803 3.91409 9.40794 4.68293C9.58786 5.45178 9.5025 6.25887 9.16575 6.97308C8.829 7.68729 8.26063 8.26664 7.55301 8.617L7.00001 8.894V17.719Z" fill="#8A8A8E"/>
</svg>
