<svg width="19" height="19" viewBox="0 0 19 19" fill="none" xmlns="http://www.w3.org/2000/svg">
<path d="M9 11H5C3.67441 11.0016 2.40356 11.5289 1.46622 12.4662C0.528882 13.4036 0.00158786 14.6744 0 16V19H14V16C13.9984 14.6744 13.4711 13.4036 12.5338 12.4662C11.5964 11.5289 10.3256 11.0016 9 11ZM12 17H2V16C2 15.2044 2.31607 14.4413 2.87868 13.8787C3.44129 13.3161 4.20435 13 5 13H9C9.79565 13 10.5587 13.3161 11.1213 13.8787C11.6839 14.4413 12 15.2044 12 16V17Z" fill="#8A8A8E"/>
<path d="M7 10C7.98891 10 8.95561 9.70676 9.77785 9.15735C10.6001 8.60794 11.241 7.82705 11.6194 6.91342C11.9978 5.99979 12.0969 4.99446 11.9039 4.02455C11.711 3.05465 11.2348 2.16373 10.5355 1.46447C9.83627 0.765206 8.94536 0.289002 7.97545 0.0960759C7.00555 -0.0968503 6.00021 0.00216642 5.08658 0.380605C4.17295 0.759043 3.39206 1.39991 2.84265 2.22215C2.29324 3.0444 2 4.0111 2 5C2.00159 6.3256 2.52888 7.59644 3.46622 8.53378C4.40356 9.47112 5.67441 9.99841 7 10ZM7 2C7.59334 2 8.17336 2.17595 8.66671 2.50559C9.16006 2.83524 9.54458 3.30377 9.77164 3.85195C9.9987 4.40013 10.0581 5.00333 9.94236 5.58527C9.8266 6.16722 9.54088 6.70177 9.12132 7.12132C8.70176 7.54088 8.16721 7.8266 7.58527 7.94236C7.00333 8.05811 6.40013 7.9987 5.85195 7.77164C5.30377 7.54458 4.83524 7.16006 4.50559 6.66671C4.17595 6.17337 4 5.59335 4 5C4 4.20435 4.31607 3.44129 4.87868 2.87868C5.44129 2.31607 6.20435 2 7 2Z" fill="#8A8A8E"/>
<path d="M19 6H17V4H15V6H13V8H15V10H17V8H19V6Z" fill="#8A8A8E"/>
</svg>
