<svg width="20" height="21" viewBox="0 0 20 21" fill="none" xmlns="http://www.w3.org/2000/svg">
<path d="M20 11C20.0024 9.36039 19.6017 7.74527 18.833 6.29696C18.0643 4.84865 16.9512 3.61158 15.5919 2.6947C14.2325 1.77782 12.6686 1.20926 11.0378 1.0391C9.40695 0.868945 7.75931 1.10241 6.23997 1.71893C4.72062 2.33545 3.37619 3.31611 2.32507 4.57454C1.27395 5.83297 0.548397 7.33057 0.212316 8.93542C-0.123765 10.5403 -0.060064 12.2031 0.397809 13.7776C0.855681 15.352 1.69368 16.7897 2.83799 17.9641L2.78099 18.015L3.68099 18.75C3.91399 18.9401 4.15699 19.118 4.40599 19.286C4.42499 19.299 4.44599 19.31 4.46599 19.323C4.69499 19.475 4.92899 19.618 5.16599 19.75C5.27699 19.812 5.39199 19.8651 5.50499 19.9221C5.65799 19.9991 5.80499 20.076 5.96599 20.1451C6.12699 20.2141 6.25199 20.2631 6.39699 20.319C6.54199 20.375 6.66899 20.4191 6.80699 20.469C6.95999 20.521 7.11399 20.569 7.27099 20.6131C7.41299 20.6531 7.55599 20.6891 7.69999 20.7241C7.84399 20.7591 7.99999 20.794 8.15499 20.824C8.32799 20.856 8.50299 20.88 8.67799 20.904C8.80599 20.921 8.93099 20.9421 9.05999 20.9541C9.37099 20.983 9.68299 21.001 9.99599 21.001C10.309 21.001 10.621 20.983 10.932 20.9541C11.061 20.9421 11.186 20.921 11.314 20.904C11.489 20.88 11.664 20.856 11.837 20.824C11.99 20.795 12.137 20.76 12.292 20.7241C12.447 20.6881 12.579 20.6531 12.721 20.6131C12.878 20.5681 13.032 20.521 13.185 20.469C13.323 20.423 13.459 20.369 13.595 20.319C13.731 20.2691 13.885 20.207 14.027 20.144C14.169 20.081 14.334 19.9991 14.486 19.923C14.6 19.865 14.715 19.812 14.826 19.75C15.065 19.618 15.299 19.475 15.526 19.323C15.546 19.31 15.567 19.299 15.586 19.286C15.835 19.118 16.078 18.9401 16.311 18.75L17.211 18.015L17.154 17.9641C18.9763 16.1039 19.9979 13.6041 20 11ZM9.99999 3.00005C11.5823 3.00137 13.1287 3.47189 14.4435 4.3521C15.7584 5.2323 16.7828 6.48266 17.387 7.94504C17.9912 9.40742 18.1483 11.0161 17.8382 12.5678C17.5281 14.1194 16.7649 15.5442 15.645 16.6621C13.9888 15.52 12.0108 14.9377 9.99999 15C7.9892 14.9377 6.01117 15.52 4.35499 16.6621C3.23512 15.5442 2.47188 14.1194 2.1618 12.5678C1.85173 11.0161 2.00874 9.40742 2.61298 7.94504C3.21722 6.48266 4.24156 5.2323 5.55644 4.3521C6.87132 3.47189 8.41769 3.00137 9.99999 3.00005ZM13.869 18C13.6102 18.145 13.3431 18.2746 13.069 18.3881C13.017 18.41 12.962 18.426 12.91 18.446C12.6418 18.551 12.3681 18.6411 12.09 18.716L12.003 18.7381C10.6867 19.0681 9.30929 19.0681 7.99299 18.7381L7.90599 18.716C7.62792 18.6411 7.35417 18.551 7.08599 18.446C7.03399 18.426 6.97899 18.41 6.92699 18.3881C6.65291 18.2746 6.38578 18.145 6.12699 18C6.09899 17.984 6.07199 17.965 6.04299 17.949C7.25536 17.2896 8.62042 16.9623 9.99999 17C11.3779 16.9621 12.7415 17.2884 13.953 17.946C13.924 17.962 13.9 17.9811 13.869 18Z" fill="#8A8A8E"/>
<path d="M10 14C10.89 14 11.76 13.7361 12.5001 13.2416C13.2401 12.7471 13.8169 12.0443 14.1575 11.2221C14.4981 10.3998 14.5872 9.49501 14.4135 8.6221C14.2399 7.74918 13.8113 6.94736 13.182 6.31802C12.5526 5.68868 11.7508 5.2601 10.8779 5.08647C10.005 4.91283 9.10019 5.00195 8.27792 5.34254C7.45566 5.68314 6.75285 6.25991 6.25839 6.99994C5.76392 7.73996 5.5 8.60999 5.5 9.5C5.50132 10.6931 5.97585 11.8369 6.81948 12.6805C7.66311 13.5241 8.80693 13.9987 10 14ZM10 7C10.4945 7 10.9778 7.14662 11.3889 7.42133C11.8 7.69603 12.1205 8.08648 12.3097 8.54329C12.4989 9.00011 12.5484 9.50278 12.452 9.98773C12.3555 10.4727 12.1174 10.9181 11.7678 11.2678C11.4181 11.6174 10.9727 11.8555 10.4877 11.952C10.0028 12.0484 9.50011 11.9989 9.04329 11.8097C8.58648 11.6205 8.19603 11.3001 7.92133 10.8889C7.64662 10.4778 7.5 9.99446 7.5 9.5C7.5 8.83696 7.76339 8.20108 8.23223 7.73223C8.70107 7.26339 9.33696 7 10 7Z" fill="#8A8A8E"/>
</svg>
