<svg width="24" height="24" viewBox="0 0 24 24" fill="none" xmlns="http://www.w3.org/2000/svg">
<path d="M21.707 20.293L17.168 15.754C18.5148 14.0464 19.1584 11.8888 18.9669 9.72241C18.7755 7.55604 17.7635 5.5447 16.138 4.09984C14.5125 2.65499 12.3964 1.88584 10.2225 1.94973C8.04868 2.01362 5.98137 2.90573 4.44355 4.44355C2.90573 5.98137 2.01362 8.04868 1.94973 10.2225C1.88584 12.3964 2.65499 14.5125 4.09984 16.138C5.5447 17.7635 7.55604 18.7755 9.72241 18.9669C11.8888 19.1584 14.0464 18.5148 15.754 17.168L20.293 21.707L21.707 20.293ZM10.5 17C9.21438 17 7.95767 16.6187 6.88875 15.9045C5.81983 15.1903 4.98671 14.1751 4.49474 12.9874C4.00277 11.7997 3.87405 10.4927 4.12485 9.23187C4.37565 7.97099 4.99472 6.8128 5.90376 5.90376C6.8128 4.99472 7.97099 4.37565 9.23187 4.12485C10.4927 3.87405 11.7997 4.00277 12.9874 4.49474C14.1751 4.98671 15.1903 5.81983 15.9045 6.88875C16.6187 7.95767 17 9.21438 17 10.5C16.9978 12.2232 16.3123 13.8753 15.0938 15.0938C13.8753 16.3123 12.2232 16.9978 10.5 17Z" fill="#E9E9EB"/>
</svg>
